<?xml version="1.0" encoding="utf-8"?>
<!-- Generator: Adobe Illustrator 23.0.1, SVG Export Plug-In . SVG Version: 6.00 Build 0)  -->
<svg version="1.1" id="レイヤー_1" xmlns="http://www.w3.org/2000/svg" xmlns:xlink="http://www.w3.org/1999/xlink" x="0px"
	 y="0px" viewBox="0 0 190.3 76.2" style="enable-background:new 0 0 190.3 76.2;" xml:space="preserve">
<style type="text/css">
	.st0{fill:#FFFFFF;}
</style>
<g>
	<g>
		<path class="st0" d="M11.1,41.3c1.5,5.7,6.7,6.4,6.9,6.4c0.3,0,0.5-0.2,0.6-0.4c0.4-0.8,0.6-2.2,0.9-3.2c0-0.2,0.2-0.2,0.3-0.2
			c0.2,0,0.6,0.2,0.6,0.4c0,0,0,0,0,0c0,0.1-0.6,2.7-0.6,3.2c0,0.3,0.1,0.4,0.3,0.5c0.2,0.2,0.4,0.4,0.4,0.6c0,0.4-0.3,0.7-0.9,0.7
			c-0.2,0-0.4,0-0.6-0.1c-5.9-1.2-7.9-4.6-8.8-8H5.5v5.2c1.6-0.4,3.4-0.9,5-1.4c0,0,0,0,0.1,0c0.2,0,0.3,0.2,0.3,0.5
			c0,0.1,0,0.3-0.2,0.3c-3.4,1.3-6.4,2.1-9,2.8c-0.2,0.1-0.3,0.7-0.6,0.7c-0.6,0-1.2-1.7-1.2-1.7c0-0.1,0.1-0.1,0.2-0.1
			c0.8-0.1,2.4-0.3,4.2-0.8c0.1-2.3,0.2-5,0.2-7.4c0-3.4-0.1-5.9-0.3-7.8c0-0.1,0-0.1,0-0.2c0-0.1,0-0.1,0.1-0.1
			c0.2,0,1.3,0.5,1.8,0.9h7.3c0.4,0,0.4-0.1,0.6-0.3c0.1-0.1,0.2-0.2,0.4-0.2c0.4,0,1.6,0.7,1.6,1.1c0,0.2-0.2,0.4-0.6,0.6
			C15,33.4,15,33.6,15,34.9c0,0.9,0.1,2,0.2,2.5c0,0.4-0.4,0.6-0.8,0.6c-0.3,0-0.5-0.2-0.5-0.5c0,0,0,0,0-0.1c0-0.1,0-0.3,0-0.4
			h-3.4l0.4,0.1c0.2,0.1,0.4,0.2,0.4,0.3c0,0.1-0.1,0.2-0.4,0.3c-0.2,0.1-0.2,0.1-0.2,0.4c0,0.1,0.1,1.6,0.2,2.2h2.7
			c0.2,0,0.5-0.1,0.6-0.3C14.3,40,15,39,15.4,39c0.5,0,1.9,1.3,1.9,1.9c0,0.2-0.2,0.4-0.6,0.4C16.7,41.3,11.1,41.3,11.1,41.3z
			 M9.1,37.1H5.6c0,1.1,0,2.2,0,3.3h4.2c-0.1-0.4-0.1-0.8-0.2-1.2C9.4,38.5,9.3,37.8,9.1,37.1L9.1,37.1z M6.1,33.1
			c-0.3,0.1-0.5,0.2-0.5,0.7l-0.1,2.4h8.3c0-0.6,0-1.3,0-1.8c0-0.4,0-0.7,0-0.9c0-0.2,0-0.3-0.4-0.3H6.1z"/>
		<path class="st0" d="M26,39.4c-1.4,8.3-5.6,10.1-5.8,10.1c-0.2,0-0.5-0.3-0.5-0.5c0-0.1,0-0.2,0.1-0.2c4.1-2.4,5.3-9.7,5.3-12.3
			c0-0.1,0-0.2,0-0.3h-0.1c-1,0-1.9,0.2-2.5,0.2c-0.4,0.1-1.1-1-1.1-1.3c0-0.1,0-0.1,0.1-0.1h0c0.9,0.2,2.7,0.3,3.7,0.3h0.3
			c0-2.1,0-2.9-0.2-4.2c0,0,0-0.1,0-0.2s0-0.1,0.1-0.1c0.1,0,2,0.1,2,0.6c0,0.2-0.3,0.4-0.6,0.6c-0.1,0.1-0.2,0.4-0.2,3.3h0.8
			c0.4,0,0.5-0.1,0.6-0.4c0.2-0.3,0.5-0.8,0.7-0.9c0.1-0.1,0.2-0.1,0.2-0.1c0.5,0,1.5,1.3,1.5,1.9c0,0.2-0.1,0.3-0.5,0.3h-3.1
			c0.1,0.1,0.2,0.2,0.2,0.2c0,0.2-0.2,0.2-0.4,0.3c-0.2,0.1-0.3,0.2-0.3,0.4c0,0.5-0.1,0.9-0.2,1.4h1.5c0.2,0,0.3-0.1,0.4-0.2
			c0.3-0.3,0.4-0.4,0.5-0.4c0.5,0,1.3,0.8,1.3,1.1c0,0.2-0.2,0.3-0.6,0.5s-0.4,0.4-0.4,0.9c-0.4,4.1-0.9,7.6-3.5,7.6
			c0,0-0.1,0-0.1,0c-0.1,0-0.3-0.1-0.3-0.2c-0.1-0.5-0.4-0.7-1.2-1c-0.1,0-0.1-0.1-0.1-0.2c0-0.2,0.2-0.5,0.4-0.5c0,0,0,0,0,0
			c0.7,0.3,1.2,0.4,1.6,0.4c0.8,0,1.8-0.8,2.2-7c0-0.2,0-0.3-0.3-0.3L26,39.4L26,39.4z M34.4,42.8c0.7,2.2,3.1,4.5,7.3,4.6
			c0.1,0,0.2,0.1,0.2,0.2c0,0.2-0.1,0.5-0.2,0.5c-0.6,0-2.5,0.5-2.8,0.8c-0.1,0-0.2,0.1-0.3,0.1c0,0-0.1,0-0.1,0
			C36.7,48,34.8,46,34,43.8c-1.5,5-7.5,5.6-7.7,5.6c-0.3,0-0.4-0.3-0.4-0.5c0-0.2,0.1-0.3,0.2-0.3c4.4-0.7,6.5-3.1,7.1-5.8
			c-1,0-2.2,0.1-3,0.2c-0.3,0.1-1.1-0.8-1.1-1.2c0-0.1,0-0.1,0.1-0.1c0,0,0,0,0.1,0c1,0.2,2.8,0.2,3.8,0.2c0.1,0,0.2,0,0.2,0h0
			c0-0.1,0-0.2,0-0.3s0-0.3,0-0.5c0-0.4,0-0.8,0-1.2c0-0.2,0-0.5,0-0.7v0h-1.3c-0.2,0.3-1.2,2-1.7,2c-0.2,0-0.4-0.2-0.4-0.3
			c0-0.1,0-0.2,0.1-0.2c1.1-1.5,2.1-3.5,2.3-4.3c0-0.2,0.1-0.2,0.2-0.2c0.2,0,1.6,0.5,1.6,1c0,0.2-0.2,0.3-0.6,0.3c0,0-0.1,0-0.2,0
			h0c-0.2,0-0.4,0.4-0.6,0.6l-0.2,0.4h2.5c0.2,0,0.3-0.2,0.5-0.3c0.2-0.2,0.5-0.6,0.7-0.8c0.1-0.1,0.2-0.2,0.3-0.2
			c0.5,0,1.7,1.2,1.7,1.6c0,0.2-0.2,0.3-0.6,0.3h-3.1c0.1,0,0.1,0,0.2,0c0.2,0,0.3,0.2,0.3,0.2s-0.1,0.2-0.3,0.3
			c-0.1,0-0.2,0.1-0.2,0.3c0,0,0,0,0,0c0,0,0,0,0,1.5c0,0.1,0,0.2,0,0.2h1.9c0.2,0,0.3-0.1,0.4-0.2c0.7-0.9,0.9-1.1,1.1-1.1
			c0.6,0,1.8,1.3,1.8,1.8c0,0.2-0.2,0.3-0.5,0.3L34.4,42.8L34.4,42.8z M31.9,35.5c-0.6,1.1-1.3,2.1-2,2.8c-0.1,0.1-0.2,0.1-0.3,0.1
			c-0.2,0-0.5-0.2-0.5-0.4c0-0.1,0-0.1,0.1-0.2c0.8-1.1,3.1-4.7,3.4-7c0-0.2,0-0.3,0.2-0.3c0.1,0,1.8,0.4,1.8,1
			c0,0.2-0.2,0.3-0.6,0.4c-0.3,0-0.4,0.2-0.5,0.5c-0.3,0.6-0.7,1.4-1.1,2.2h3.3c0.4,0,0.5-0.1,0.8-0.4c0.6-0.8,0.8-1,1-1
			c0.5,0,1.8,1.3,1.8,1.8c0,0.2-0.2,0.4-0.6,0.4C38.7,35.5,31.9,35.5,31.9,35.5z"/>
		<path class="st0" d="M48.7,39.7l0.8,0.5c0.2,0.1,0.3,0.2,0.3,0.4c0,0.2-0.3,0.3-0.6,0.3c-0.2,0-0.3,0-0.5,0.2l-0.3,0.4h1.5
			c0.2,0,0.3-0.2,0.5-0.3c0.1-0.1,0.2-0.1,0.3-0.1c0.4,0,1.2,0.7,1.2,1c0,0.2-0.1,0.3-0.5,0.4c-0.3,0.1-0.4,0.2-0.5,0.3
			c-3.9,6.3-9,7-9,7c-0.2,0-0.4-0.2-0.4-0.4c0-0.1,0.1-0.2,0.2-0.2c2.6-0.7,4.6-2.2,6.1-3.8c0,0-0.1,0-0.1,0c-0.1,0-0.2-0.1-0.4-0.2
			c-0.4-0.4-0.9-0.7-1.4-0.9c-0.8,0.8-2.2,2-2.6,2c-0.2,0-0.5-0.2-0.5-0.5c0-0.1,0-0.1,0.1-0.2c2-1.4,4.8-4.6,5.3-5.9
			c-1,0-3.4,0-5.1,0.3c-0.4,0.1-1.3-0.9-1.3-1.3c0-0.1,0-0.1,0.2-0.1h0c2.2,0.2,4.1,0.2,5.6,0.3c0-0.7,0-1.4,0-2.1
			c-0.7,0-1.4,0.1-2.1,0.2c-0.4,0.1-1.2-0.9-1.2-1.2c0-0.1,0-0.1,0.1-0.1h0c1.2,0.1,2.2,0.2,3.1,0.2c0-0.3,0-0.7,0-1l-0.1-1.1h-0.2
			c-0.3,0.3-1.8,1.8-2.1,1.8c-0.2,0-0.5-0.3-0.5-0.5c0-0.1,0-0.1,0.1-0.2c1.8-1.4,3.6-4.2,3.8-4.9c0-0.1,0.1-0.1,0.1-0.1
			c0.1,0,1.5,0.7,1.5,1.3c0,0.2-0.2,0.2-0.4,0.2c-0.1,0-0.2,0-0.3,0c0,0,0,0,0,0c-0.2,0-0.3,0.1-0.5,0.3L47.9,33h7.6
			c0.4,0,0.4-0.1,0.7-0.3c0.2-0.2,0.6-0.7,0.7-0.9c0.1-0.1,0.2-0.1,0.3-0.1c0.5,0,1.7,1.3,1.7,1.8c0,0.2-0.1,0.3-0.5,0.3h-2.1
			c0.1,0,0.2,0.1,0.2,0.2c0,0.1-0.1,0.2-0.2,0.3c-0.2,0.1-0.3,0.2-0.3,0.6c0,0.4,0,0.8,0,1.1H56c0.2,0,0.4-0.1,0.5-0.3
			c0.2-0.2,0.5-0.7,0.7-0.9c0.1-0.1,0.2-0.2,0.3-0.2c0.5,0,1.5,1.2,1.5,1.8c0,0.2-0.2,0.4-0.5,0.4h-2.6v2.2h2.6
			c0.2,0,0.5-0.1,0.6-0.3c0,0,0.8-1,1.2-1c0.7,0,1.8,1.2,1.8,1.8c0,0.2-0.2,0.4-0.5,0.4L48.7,39.7L48.7,39.7z M47.8,42.2
			c-0.4,0.4-0.8,0.9-1.2,1.3c0.8,0.2,1.6,0.4,1.6,1.1c0,0.1,0,0.2,0,0.2c0.7-0.8,1.3-1.7,1.7-2.5c0,0,0-0.1,0-0.1s0,0-0.1,0H47.8z
			 M50,33.8h-1.1c0.1,0,0.2,0.1,0.2,0.2c0,0.1-0.1,0.2-0.3,0.3c-0.1,0.1-0.3,0.2-0.3,0.6c0,0.4,0,0.8,0,1.1h1.6c0-0.3,0-0.7,0-1
			L50,33.8z M50,38.9c0-0.7,0-1.4,0-2.2h-0.3c-0.3,0-0.8,0-1.3,0c0,0.7,0,1.3,0,2.1H50z M60.6,46.1L56,46c0,1,0,2,0.1,3.2
			c0,0.4-0.4,0.6-0.7,0.6c-0.3,0-0.5-0.2-0.5-0.5c0,0,0,0,0,0c0.1-1.1,0.1-2.2,0.2-3.2l-1.4,0c-0.7,0-1.4,0.1-2.8,0.2
			c-0.4,0-1.1-0.9-1.1-1.3c0-0.1,0-0.1,0.1-0.1h0c1.1,0.1,1.9,0.2,2.6,0.2v-1.4c0-0.6,0-1.1-0.1-1.9c0-0.1,0-0.2,0-0.2
			c0-0.1,0-0.1,0.1-0.1c0.3,0,1.2,0.5,1.5,0.8H55c0-0.3,0-0.6,0-0.8c0-0.5,0-0.8-0.1-1.1c0-0.1,0-0.2,0-0.2c0-0.1,0.1-0.2,0.3-0.2
			c0.2,0,1.7,0.2,1.7,0.5c0,0.2-0.2,0.4-0.5,0.5C56,41,56,41.1,56,42.3h0.2c0.4,0,0.5-0.1,0.7-0.3c0.4-0.6,0.6-0.8,0.8-0.8
			c0.4,0,1.5,1.1,1.5,1.6c0,0.2-0.2,0.3-0.5,0.3H56c0,0.7,0,1.4,0,2.1l1.8,0c0,0,0.1,0,0.1,0c0.3,0,0.4-0.1,0.6-0.3
			c0.2-0.2,0.5-0.8,0.7-0.9c0.1-0.1,0.2-0.2,0.3-0.2c0.5,0,1.7,1.2,1.7,1.9C61.1,45.9,60.9,46,60.6,46.1L60.6,46.1L60.6,46.1z
			 M52.3,33.8h-1c0.1,0,0.2,0.1,0.2,0.2c0,0.1-0.1,0.2-0.2,0.3c-0.2,0.1-0.3,0.2-0.3,0.6s0,0.8,0,1.1h1.5c0-0.3,0-0.7,0-1L52.3,33.8
			z M52.4,38.9c0-0.7,0-1.4,0-2.2h-1.5v2.2H52.4z M54.9,33.8h-1.2c0.1,0,0.2,0.1,0.2,0.2c0,0.1-0.1,0.2-0.3,0.3
			c-0.1,0.1-0.3,0.2-0.3,0.6c0,0.4,0,0.8,0,1.1H55c0-0.3,0-0.7,0-1L54.9,33.8z M54.9,38.9c0-0.7,0-1.4,0-2.2h-1.7c0,0.7,0,1.3,0,2.2
			H54.9z M55,45.2c0-0.8,0-1.5,0-2.1h-1.4c-0.2,0.1-0.3,0.3-0.3,1.5c0,0.2,0,0.4,0,0.6L55,45.2z"/>
		<path class="st0" d="M77,43.7c0,1.9,0.1,3.7,0.1,4.8c0,0.3-0.3,0.6-0.7,0.6c-0.2,0-0.5-0.2-0.5-0.5c0,0,0,0,0,0
			c0-0.9,0.1-2.8,0.1-4.8h-2.5c0,1.8,0,3.7,0,5c0,0.4-0.4,0.6-0.7,0.6c-0.3,0-0.5-0.2-0.5-0.5c0,0,0,0,0-0.1c0.1-1,0.1-2.4,0.2-3.9
			c-1.9,0.9-6.9,2.5-8.2,3c-0.2,0.1-0.2,0.6-0.5,0.6c-0.3,0-0.9-0.9-1.1-1.5c0,0,0-0.1,0-0.1c0-0.1,0.1-0.1,0.2-0.1
			c0.7-0.1,1-0.1,2.7-0.5c0-0.6,0-1.5,0-2.5c0-0.7,0-1.5,0-2.1c0-0.5-0.1-0.9-0.1-1.3c0-0.2-0.1-0.2-0.1-0.3c0-0.1,0.1-0.2,0.3-0.2
			c0.7,0,1.8,0.2,1.8,0.6c0,0.2-0.2,0.4-0.6,0.5c-0.2,0.1-0.3,0.2-0.3,2.8c0,0.7,0,1.4,0,2.2c0.4-0.1,0.9-0.2,1.3-0.4
			c0-1.2,0-3.5,0-5.2c0-0.8,0-2.2-0.1-2.9h-1.1c0,0.2,0,0.5,0,0.7c0,0.4-0.4,0.6-0.7,0.6c-0.3,0-0.5-0.2-0.5-0.5c0,0,0-0.1,0-0.1
			c0.1-1.2,0.2-2.2,0.2-3.4c0-0.4,0-1.6-0.2-2.7c0,0,0-0.1,0-0.1c0-0.1,0.1-0.2,0.2-0.2c0.1,0,0.2,0,0.2,0.1c0.2,0.1,0.6,0.3,1,0.6
			h2.3c0.4,0,0.4-0.2,0.6-0.4c0.1-0.1,0.2-0.2,0.3-0.2c0.3,0,1.4,0.7,1.4,1.1c0,0.2-0.2,0.3-0.6,0.6c-0.2,0.2-0.3,0.2-0.3,1.5
			c0,1,0.1,2,0.1,3c0,0.3-0.4,0.5-0.7,0.5c-0.2,0-0.5-0.1-0.5-0.4v0c0-0.2,0-0.3,0-0.5h-0.4v0c0,0.1-0.1,0.2-0.3,0.3
			c-0.2,0.1-0.2,0.8-0.2,3h0.3h0c0.2,0,0.4-0.2,0.5-0.4c0.2-0.2,0.3-0.5,0.5-0.6c0.1-0.1,0.2-0.2,0.3-0.2c0.4,0,1.4,1,1.4,1.5
			c0,0.2-0.2,0.4-0.6,0.4h-2.5c0,1.4,0,2.9,0,3.8c1.4-0.4,2.8-0.9,3.6-1.3c0,0,0,0,0.1,0c0-0.9,0-1.8,0-2.7c0-3.4-0.2-4.9-0.2-5.5
			c0,0,0-0.1,0-0.1c0-0.1,0-0.1,0.1-0.1c0,0,0.1,0,0.2,0c0.2,0.1,0.8,0.4,1.3,0.8h2.7c0,0-0.1-0.1-0.1-0.1c-0.4-0.7-1.5-1.3-2.1-1.6
			c-0.1,0-0.1-0.1-0.1-0.2c0-0.2,0.2-0.5,0.4-0.5c0.4,0,1.9,0.7,1.9,0.8c1.6-1.5,1.7-1.7,1.7-1.8c0-0.1-0.1-0.1-0.2-0.1h-1.2
			c-0.7,0-2.9,0.1-3.6,0.2c-0.3,0-1-0.9-1-1.2c0-0.1,0-0.1,0.1-0.1h0c1,0.1,3.2,0.3,4.2,0.3c0,0,0.9,0,1.8,0c0.2,0,0.3-0.1,0.5-0.3
			c0.1-0.1,0.2-0.2,0.4-0.2c0.1,0,0.1,0,0.2,0c0.4,0.2,1.1,0.8,1.1,1.1c0,0.2-0.2,0.4-0.6,0.5c-0.2,0.1-0.5,0.1-0.7,0.2
			c-0.4,0.3-1.4,1.1-2.1,1.6l0.1,0.1c0.2,0.2,0.3,0.5,0.3,0.8c0,0.1,0,0.2-0.1,0.3h1.7c0.4,0,0.4-0.2,0.6-0.4
			c0.2-0.1,0.2-0.2,0.4-0.2c0.1,0,1.4,0.7,1.4,1.2c0,0.2-0.2,0.4-0.5,0.5c-0.4,0.2-0.4,0.2-0.4,3.5c0,2.2,0.1,4.7,0.1,6.2
			c0,1.6-1.5,1.9-1.8,1.9c-0.1,0-0.2-0.1-0.3-0.2c-0.2-0.4-0.7-0.4-1.3-0.5c-0.1,0-0.2-0.2-0.2-0.3c0-0.2,0.1-0.5,0.3-0.5
			c0.4,0.1,0.9,0.2,1.3,0.2c0.5,0,0.8-0.2,0.8-0.8c0-0.9,0-2,0-3.1L77,43.7L77,43.7z M69.7,36.7c0-0.9,0-1.7,0-2.4
			c0-0.3,0-0.5,0-0.8c0-0.3-0.1-0.3-0.3-0.3h-2.5c-0.2,0.1-0.3,0.2-0.3,0.4c0,1.1,0,2,0,3H69.7z M73.8,37.3L73.8,37.3
			c-0.2,0.1-0.3,0.3-0.3,0.4v1.9h2.5c0-1.5-0.1-2-0.1-2.2c0-0.1,0-0.2,0-0.2C75.9,37.3,73.8,37.3,73.8,37.3z M76.1,40.5h-2.6
			c0,0.8,0,1.5,0,2.4h2.5V40.5z M77,40.5c0,0.8,0,1.5,0,2.4h2.8c0-0.8,0-1.6,0-2.4H77z M77.2,37.3C77.3,37.3,77.3,37.3,77.2,37.3
			c0.3,0.1,0.3,0.1,0.3,0.2c0,0.1-0.1,0.2-0.3,0.3C77.1,37.9,77,38,77,38.2c0,0.4,0,0.9,0,1.4h2.8c0-0.7,0-1.4,0-2.1
			c0-0.2,0-0.3-0.3-0.3C79.5,37.3,77.2,37.3,77.2,37.3z"/>
		<path class="st0" d="M99.9,49.2c0-0.5,0-1,0-1.6H88c0,0.2,0,0.4,0,0.6s0,0.4,0,0.7c0,0.5-0.5,0.8-0.9,0.8c-0.3,0-0.5-0.2-0.5-0.4
			c0,0,0,0,0,0c0.2-2.7,0.2-6.4,0.2-9.6c0-4.5-0.1-6.6-0.3-7.5c0-0.1,0-0.1,0-0.1c0-0.1,0-0.1,0.1-0.1c0.2,0,1.3,0.5,1.8,0.9h11
			c0.3,0,0.4-0.2,0.6-0.4c0.2-0.2,0.3-0.3,0.5-0.3c0.4,0,1.6,0.9,1.6,1.2c0,0.2-0.2,0.4-0.7,0.7c-0.3,0.2-0.4,0.2-0.4,5
			c0,3.4,0.1,7.5,0.2,10.1c0,0,0,0,0,0c0,0.4-0.5,0.7-0.9,0.7C100.2,49.6,100,49.5,99.9,49.2L99.9,49.2L99.9,49.2z M100,46.7
			c0-2.4,0-5.3,0-7.9c0-1.9,0-3.6,0-4.8c0-0.2-0.1-0.4-0.4-0.4H88.3C88.1,33.6,88,33.8,88,34c-0.1,2-0.1,4-0.1,6
			c0,2.2,0,4.5,0.1,6.6L100,46.7L100,46.7z M96.3,38.3c0,2.2,0,4.7,0.1,5.6c0,0,0,0.1,0,0.1c0,1.1-1.5,1.8-2.2,1.8
			c-0.2,0-0.2-0.2-0.3-0.3c-0.3-0.5-1.4-0.5-2-0.7c-0.1,0-0.2-0.2-0.2-0.3c0-0.2,0.1-0.5,0.2-0.5c0.8,0.1,1.5,0.2,2.1,0.2
			c0.7,0,1.2-0.2,1.2-0.8c0-1.3,0-3.2,0-5.2h-1.8c-1.3,0-2.9,0.2-3.7,0.2c-0.4,0-1.1-0.9-1.1-1.2c0-0.1,0-0.1,0.1-0.1h0
			c0.8,0.1,3.3,0.3,4.8,0.3h1.6c0-0.5,0-1,0-1.5c0-0.6-0.1-1.2-0.2-1.4c0,0,0-0.1,0-0.1c0-0.2,0.1-0.2,0.2-0.2c0,0,0.9,0,1.4,0.2
			c0.2,0.1,0.4,0.2,0.4,0.4c0,0.1-0.2,0.3-0.6,0.4c-0.1,0-0.2,0.2-0.2,0.4c0,0.5,0,1.1,0,1.8h0.4c0.3,0,0.4-0.1,0.6-0.3
			c0.7-0.9,0.7-0.9,0.9-0.9c0.4,0,1.5,1.2,1.5,1.7c0,0.2-0.1,0.3-0.5,0.3L96.3,38.3L96.3,38.3z M92.8,41.8c-0.4-0.4-1.3-1.2-2.3-1.7
			c-0.1,0-0.1-0.1-0.1-0.2c0-0.2,0.2-0.5,0.4-0.5c0.2,0,3.4,0.8,3.4,2.2c0,0.4-0.2,0.6-0.5,0.6C93.3,42.3,93.1,42.1,92.8,41.8z"/>
	</g>
	<g>
		<path class="st0" d="M138,28.7c-0.6,0-1.1,0.1-1.7,0.1c-0.5-0.4-1.1-0.4-1.8-0.4c-1.3,0-2.8,0.4-4,0.4c-0.5,0-1-0.1-1.3-0.3
			c-2.9,0.1-5.6,0.2-8.2,0.2c-1.1,0-2.1-0.1-3.2-0.1c-0.6-0.2-0.8-0.7-0.8-1.1c0-0.5,0.4-1.1,1.1-1.4c0.2,0,0.4,0,0.7,0
			c1.9,0,3.6,0.2,5.3,0.2c0.9,0,1.8-0.1,2.7-0.2c0.1-0.1,0.1-0.2,0.1-0.2c0-0.4-0.4-0.7-0.5-1.1c-0.5-1.8-0.5-4.3-1.2-5.9
			c-1.6-0.2-3.5-0.2-5.6-0.2c-2.3,0-4.7,0.1-6.7,0.2c-0.7,0.1-1.6,0.2-2.5,0.2c-0.7,0-1.3-0.1-1.9-0.4c-0.7-0.4-1-1.2-1.7-1.4
			c0-0.5-0.2-0.9-0.2-1.4c0-0.1,0-0.3,0.1-0.4c0.5-0.2,1.1-0.3,1.7-0.3c0.9,0,1.7,0.1,2.5,0.2c0.6,0.1,1.1,0.1,1.7,0.1
			c1.4,0,2.8-0.1,4.2-0.1c0.4,0,0.8,0,1.3,0c3.1,0.2,6.2,0.5,9.1,0.5c1.6,0,3.2-0.1,4.7-0.4c-0.1-0.8-0.8-1.6-1-2.5
			c0-0.2,0-0.3,0-0.5c0-0.7,0.1-1.3,0.1-2c0-0.1,0-0.2,0-0.2C131.1,9,131,7.6,131,6.2c0-0.2,0-0.4,0-0.7c0.1-1,0.3-1.9,0.3-2.8
			c0-0.2,0-0.4-0.1-0.6c0.4-0.9,1-1.6,1.9-2.2c1.3,0.8,3.2,0.1,4.5,1.1c0.2,0.2,0.3,0.6,0.5,0.8c0.9,0.8,2.2,1.4,2.8,2.2
			c1.4,2,0.7,5.2,1.9,7.4c-0.4,0.4-1,0.6-1.3,1.1c0,0.2,0,0.4,0,0.5c0,1.1,0.1,1.4,0.1,1.6c0.1,0,0.2,0,0.3,0c2.6,0,8.9-1,13.6-1.9
			c0.5-0.1,1.4-0.2,2.4-0.2c1.2,0,2.3,0.2,2.3,1c0,0.7-1.4,1-1.4,1.7c-4.3,0.4-8.6,0.7-12.4,1.5c0,0.1,0,0.1,0,0.1
			c0,0.4,0.2,0.5,0.2,0.8c0,0.1,0,0.1,0,0.2c-0.6,1.3-2,1-2.9,1.8c-1.3,1.2-1.1,3.3-2.1,4.9c1.3-0.1,2.9-0.9,4.6-0.9
			c0.5,0,1.1,0.1,1.6,0.3c1.1,0.5,1.3,1.9,2.2,2.7c-0.4,0.2-0.5,0.5-0.7,0.8c-0.2,0-0.5-0.1-0.7-0.1c-2.2,0-4,1.1-5.5,2
			C141.6,29.1,139.7,28.7,138,28.7z M135.6,33.8c0-0.1,0-0.1,0-0.1c0-1.8,3-2.9,5.7-2.9c1.8,0,3.5,0.5,4.1,1.8
			c0.4,0.8,1.2,2.8,1.2,4.6c0,2.2,0,2.3,0.1,2.5c0.2,1.2,1.2,2.5,1.4,3.5c0.1,0.1,0.1,0.3,0.1,0.5c0,0.4-0.1,0.7-0.1,1.1
			c0.1,0.8,0.4,1.5,0.4,2.3c0,0.4-0.1,0.7-0.2,1c-0.4,0.8-1.4,0.8-2.3,1c-0.2,0.1-0.7,0.3-1,0.4c-1.1,0.2-2.3,0.1-3.5,0.3
			c-2.1,0.3-4.1,0.5-6.4,1c-1.1,0.2-2,0.8-2.8,0.8c-0.2,0-0.6-0.2-1-0.2c-0.2,0-0.4,0-0.6,0c-2,0-3.2,0-3.2-1.7c0-0.1,0.8-3.7,1.4-6
			c0.8-3.2,1-6.2,1.8-9.3c0.8-3,1.2-3.7,2.3-3.7c0.9,0,1.9,0.6,2,1.4c0,0.9-0.8,1.3-1.1,2c-0.3,0.7-1.4,4.2-1.4,5.9
			c0,0.1,0,0.2,0,0.4c0.1,0.1,0.3,0.1,0.3-0.2c0-0.1-0.1-0.1-0.1-0.2c0-0.1,0.1-0.2,0.1-0.2c0.2-0.4,3.2-1.3,3.8-1.3
			c0.2,0,0.4,0,0.6,0.1c0-0.1,0-0.2,0-0.3c0-0.5-0.2-0.8-0.3-1.3c0-0.1,0-0.1,0-0.2c0-1.1-0.1-1.1-0.1-1.2
			C136.5,34.7,135.6,34.6,135.6,33.8z M139.6,18.9c-0.7-0.2-1-0.8-1.6-1c-0.5-0.1-1-0.2-1.6-0.2c-2,0-4.4,0.7-5.8,0.9
			c0,0.2,0,0.3,0,0.5c0,1.1-0.3,2.4-0.3,3.5c0,0.5,0,0.9,0.2,1.3c0.2,0.5,1.7,1.9,2.2,2c0.2,0.1,0.7,0.1,1.2,0.1
			c1.7,0,1.9-0.1,3.1-2.2c1-1.5,1.6-2.9,2.5-4.3c0.4-0.6,1.1-1.1,1.1-1.8c0-0.1,0-0.2-0.1-0.3C139.8,17.5,140.2,18.7,139.6,18.9z
			 M137.7,41c-1.9,0-3.8,0.2-5.3,0.5c-0.7,1.4-0.5,4.3-0.8,6.1c2.6-0.4,5.5-0.6,8.1-1.4C138.8,45.1,138.5,42.5,137.7,41z"/>
	</g>
	<g>
		<path class="st0" d="M159.6,56.6c-0.4,0-0.8-0.3-1.2-0.3c-0.1,0-0.2,0-0.3,0c-0.8,0-1.7,0.1-2.6,0.1c-0.2,0-0.3,0-0.4,0
			c-0.3,0-0.6,0-0.9,0c-0.9,0-1.6,0.1-2.2,0.6c-1.6,0-2.1-1.1-2.5-2.2c0.5-0.8,1.6-1.1,4.4-1.1s5.8,0.4,8.1,0.5c0,0,0,0,0-0.1
			c0-0.3-0.4-0.4-0.5-0.8c0,0,0-0.1,0-0.2c0-0.4,0.2-0.7,0.2-1.1c0,0-0.1-0.2-0.1-0.2c-0.1,0-0.2-0.1-0.3-0.1
			c-0.6,0-1.2,0.8-1.9,0.8c-0.1,0-0.2,0-0.3,0c-0.3,0-0.4-0.5-0.6-0.7c-0.3-0.3-0.8-0.2-0.9-0.6c0,0,0-0.1,0-0.1
			c0-0.7,1.1-1.4,1.7-1.7c1-0.4,1.9-0.4,2.6-0.9c0-0.2-0.1-0.5-0.1-0.7c0-1.5,0.4-3,0.4-4.3c0-0.5-0.1-1-0.2-1.4c-0.1,0-0.1,0-0.2,0
			c-1.4,0-1.1,1.5-1.9,2.1c0,1.3-0.2,1.5-0.2,2.9c-0.6,0.1-1.1,0.2-1.6,0.7c-0.5-0.2-0.6-0.5-1.1-0.7c-0.1,0-0.1,0-0.2,0
			c-0.4,0-0.9,0.3-1.3,0.3c-0.7,0-2.4-1.5-2.9-2.2c-0.3-0.3-0.3-0.9-0.6-1.1c0.1-1.2,0.5-2.2,0.5-3.4c0-0.3,0-0.6-0.1-0.9
			c0.1-0.3,0.4-0.4,0.7-0.6c0-0.1,0-0.3,0-0.4c0-1.3,0.7-2.9,1-4.3c-0.1,0-0.1-0.1-0.1-0.1c-0.1,0-0.1,0.3-0.2,0.3
			c-0.1,0-0.1,0-0.2-0.1v0c0-0.4,0.4-0.4,0.8-0.5c0.2-0.8,0.4-1.4,0.6-2.2c0-0.1-0.1-0.2-0.1-0.2c-0.1,0-0.2,0-0.2,0s-0.1,0-0.1,0
			c0.5-1.8,1.5-3.3,1.7-5.4c0.6-0.6,1.4-0.6,2.9-0.6c0.4,0,0.8,0,1.2,0c0.4,0,0.9,0,1.2,0.3c0.3,0.2,0.3,0.4,0.6,0.5
			c0.5,0.2,1.4,0.4,1.7,0.6c0.8,0.6,1.8,1.8,1.8,3.2c0,0.9-0.4,1.9-1.9,4.2c-0.8,1.2-2,2.8-2,4c0,0.2,0,0.3,0.1,0.4
			c-0.1,0.3-0.5,0.3-0.5,0.7c0,0,0,0,0,0.1c0.1,0,0.2,0,0.3,0c0.6,0,1.2-0.5,1.7-0.7c8.5-4,14.3-5.3,15.2-5.4c1,0,1.9,0.3,1.9,1.2
			c-6.1,1.9-11.8,4.1-17.1,6.8c0.1,0.5,0.7,0.4,0.9,0.8c-0.1,1-0.4,2.5-0.4,3.9c0,0.4,0.1,0.9,0.1,1.2c0.6-0.1,1-0.4,1.4-0.6v-0.7
			c0.7-1.4,0.4-3.8,0.8-5.5c0.1,0,0.2,0,0.3,0c0.3,0,0.6,0,0.9,0c0.1,0,0.2,0,0.3,0c0.5,0.4,0.7,0.8,0.7,1.3c0,1-0.6,2.1-0.6,3.3
			c0,0.2,0,0.4,0.1,0.6c0.6-0.1,1.1-0.4,1.7-0.6c0.7-1.8,0.5-4.1,1-6.1c0.2-0.1,0.3-0.1,0.5-0.1c0.5,0,0.5,0,0.6,0
			c0.6,0.4,0.8,1.2,1.2,1.7c-0.5,1-0.9,2.2-1.1,3.6c0.1,0,0.1,0,0.2,0c2.3,0,2.4-3.8,3.5-5.3c-0.1-0.2-0.1-0.4-0.1-0.6
			c0-0.3,0.1-0.5,0.2-0.8c0.3-0.2,0.5-0.3,0.7-0.3c0.8,0,1.1,1.1,1.6,1.7c-0.7,1-1.2,2.1-1.5,3.5c0.1,0,0.2,0,0.2,0
			c0.6,0,1.1-0.7,1.6-0.9c0.1,0,0.3,0,0.4,0c0.8,0,1.3,0.2,1.5,0.7c0,0.4-0.1,0.6-0.1,0.8c0,0.1,0,0.2,0.1,0.3
			c-0.5,0.3-0.9,0.5-1.1,1.1c-1.6,0.2-2.7,0.9-4.1,1.3c-0.5,2.2-1.7,3.6-1.8,6.2c1-0.2,1.7-0.8,2.8-0.9c0.1,0,0.2,0,0.3,0
			c0.7,0,0.8,0,0.8,0c0.8-0.2,1.6-0.8,2.5-1.1c0.9-0.3,1.9-0.5,2.9-0.8c2-0.5,3.8-1.2,5.6-1.5c0.2,0,0.4,0,0.5,0
			c0.6,0,1.1,0.3,1.6,0.8c-0.1,0.4-0.5,0.2-0.6,0.5c0.1,0.2,0.1,0.3,0.1,0.4c0,1.1-1.5,1.2-2.4,1.6c0,0,0,0,0,0.1
			c0,0.2,0.4,0,0.5,0.2c-0.7,0.4-1.7,0.7-2.6,0.7c-0.2,0-0.3,0-0.4,0c-1.9,0.9-4.2,0.7-6.2,1.2c-2.2,0.6-4.3,1.7-6.2,2.4
			c-0.1,0-0.1,0-0.1,0c-0.2,0-0.2-0.1-0.4-0.2c-1,0.1-1.7,1.2-2.5,1.4c-0.1,0-0.2,0-0.2,0c-0.8,0-2.2-0.3-3.5-0.3
			c-0.1,0-0.2,0-0.2,0c-0.4,0-0.8,0-1.1,0s-0.6,0-1,0c-0.1,0-0.2,0-0.3,0c-1,0-1.8-0.4-2.6-0.4C160.2,56.5,159.9,56.7,159.6,56.6
			L159.6,56.6L159.6,56.6z M157.7,58.7c0.6-0.2,0.9-0.6,1.2-1c0.1,0,0.1,0,0.2,0c0.1,0,0.2,0.1,0.3,0.1c0.1,0,0.1,0,0.1,0
			c0.5-0.3,1.1-0.5,1.7-0.5c1.8,0,3.5,1.4,3.9,3c-0.5,0.4-1.2,0.5-1.4,1.2c0.1,0.6,1.6,0.8,1.6,1.7c0,0.7-0.9,0.9-1.4,1.2
			c-0.7,0.5-1.3,1.5-2.1,2.3c-1.3,1.5-2.6,3.2-3.9,4.7c-0.7,0.8-1.6,1.6-2,2.3c-0.3,0.5-0.1,1.2-0.9,1.3c-0.3-0.3-0.5-0.5-0.6-1
			c0.4-0.6,0.9-1.1,1.5-1.3c0.2-1.2,1.4-2,1.8-3.2c-0.9-0.9-2.5-1.1-2.6-2.8c-0.2,0.1-0.4,0.1-0.5,0.1c-0.8,0-1.2-0.4-1.8-0.4
			c-0.1,0-0.2,0-0.2,0c-0.3-0.3-1-0.5-1.1-1c0-0.1-0.1-0.1-0.1-0.2c0-0.2,0.1-0.4,0.1-0.6c0-0.1,0-0.1,0-0.1c0-0.2-0.3-0.4-0.3-0.6
			c0-0.1-0.1-0.2-0.1-0.4c0-0.3,0.1-0.7,0.1-1.1c0-0.2-0.1-0.3-0.1-0.4c0.3-0.1,0.8,0,0.9-0.2v0c0-0.2-0.3-0.2-0.3-0.3
			c0,0,0,0,0-0.1c0.1,0,0.2-0.1,0.3-0.1c0.2,0,0.3,0,0.4,0.1c1.5-0.9,3.5-1.3,4.6-2.7L157.7,58.7L157.7,58.7z M153.2,42
			c-0.1,0-0.2,0.1-0.2,0.2c0,0.2,0.1,0.4,0.3,0.4c0,0,0.1,0,0.1,0C153.4,42.4,153.4,42,153.2,42z M161.3,64.1
			c-0.4-0.3-0.8-1.2-1.3-1.2c-0.4,0-3.4,1.7-3.8,3c0.4,0.4,1.2,0.4,1.9,0.6c0.3,0.2,0.4,0.5,0.9,0.5c0.1,0,0.1,0,0.1,0
			C159.8,66,160.7,65.2,161.3,64.1z M174.7,75.6c-0.7,0-1,0.6-1.7,0.6c-0.1,0-0.1,0-0.2,0c-0.3-0.3-0.4-0.7-0.4-1
			c0-0.5,0.2-1.1,0.3-1.7c0.1-0.7,0.1-1.3,0.1-2.1c0-0.9-0.1-1.8-0.1-2.7c-0.2-0.1-0.5-0.1-0.7-0.1c-3,0-6.4,2.2-9.4,2.2
			c-0.9,0-1.6-1-1.6-1.8c0-0.1,0.1-0.2,0.1-0.3c0.2-0.4,0.7-0.5,1.2-0.5c0.5,0,1.2,0.1,1.7,0.1c0.2,0,0.4,0,0.6-0.1
			c0.7-0.3,1.7-2.5,2.1-3.2c0.6-1.2,1.4-2.3,1.9-3.2c-0.5,0.1-1.4,0.4-2,0.4c-1,0-1-0.7-1-0.9c0-0.4,0.3-0.7,0.3-1.1
			c2.3-0.7,4.5-1.4,6.5-2.3c0.2,0.1,0.3,0.1,0.5,0.1c0.8,0,1.1-1.2,1.1-1.9c0,0,0-0.2,0-0.2c0.2-0.1,0.4-0.2,0.6-0.2
			c0.8,0,1.5,0.8,1.9,1.2c0.3-0.1,0.5-0.2,0.7-0.2c0.9,0,1.7,0.7,2.2,1.2c-0.4,1.8-3.5,0.8-4.4,2.1c0.1,0.2,0.1,0.5,0.1,0.7
			c0,1.5-0.5,2.8-0.5,4.4c0,0.4,0.1,0.8,0.1,1.1c1.4-0.2,3.2-0.5,5.1-0.8c0.9-0.1,1.8-0.2,2.6-0.4c0.9-0.2,1.7-0.8,2.2-0.8
			c0.1,0,1.9,0.3,1.9,1.2c0,1.2-2.9,1-4.5,1.1c-2.3,0.2-4.9,0.8-6.6,1.4c0,0.3,0,0.5,0,0.8c0,3.8-0.2,4.9-0.6,5.8c0,0.1,0,0.1,0,0.1
			c0,0.3,0.3,0.4,0.3,0.8C174.9,75.6,174.8,75.6,174.7,75.6z M167.8,52.2c0.4-1,0.8-2,1-3.3c-0.3,0-0.6,0-1-0.2
			c0,0.5-0.4,0.5-0.6,0.8c-0.5,1.2-0.4,2.9-1.1,3.8c-0.6-0.4-1.4-0.8-1.7-1.4c0.3-0.4,0.5-0.9,0.6-1.5c-0.2-0.2-0.3-0.4-0.6-0.4
			c-0.4,0.3-0.6,1.1-0.6,2c0,0.9,0.2,1.7,0.4,2.2c0.2,0,0.3,0,0.5,0c1,0,2.2,0.2,3.1,0.2s1.6-0.2,1.9-1.1
			C168.9,53.2,168.2,52.8,167.8,52.2z M173.4,60.1c-1.5,0.3-3,0.5-3.8,1.4c0.1,0.4,0.4,0.5,0.6,1c-0.7,1.8-2.1,2.9-2.6,4.8
			c0.2,0.1,0.3,0.2,0.5,0.2c0.4,0,0.8-0.2,1.1-0.2c0.2,0,0.3,0.1,0.5,0.2c0.9-0.3,1.7-0.9,2.7-0.9c0.1,0,0.2,0,0.2,0
			C172.9,64.5,173.3,62,173.4,60.1z M171.2,48.3c-0.1,1.1-0.6,2.5-0.6,3.5c0,0.2,0,0.3,0,0.4c0.2-0.7,1-1.4,1.2-2.3c0,0,0,0,0-0.1
			c0-0.2,0-0.3,0-0.4c0,0,0-0.1,0-0.2c0.1-0.5,0.4-1.1,0.4-1.5c0-0.3-0.2-0.5-0.6-0.5c-0.1,0-0.2,0.2-0.2,0.3c0,0.1,0.1,0.2,0.1,0.3
			s-0.1,0.1-0.1,0.2C171.4,48,171.2,47.9,171.2,48.3L171.2,48.3L171.2,48.3z"/>
	</g>
</g>
</svg>
